<svg width="21" height="20" viewBox="0 0 21 20" fill="none" xmlns="http://www.w3.org/2000/svg">
<g clip-path="url(#clip0_6_616)">
<path d="M0 9.99397C0 10.5876 0.510374 11.0721 1.10788 11.0721H9.16183V18.9098C9.16183 19.4913 9.65975 19.988 10.2697 19.988C10.8797 19.988 11.3901 19.4913 11.3901 18.9098V11.0721H19.4315C20.0291 11.0721 20.5395 10.5876 20.5395 9.99397C20.5395 9.40038 20.0291 8.90372 19.4315 8.90372H11.3901V1.07814C11.3901 0.496671 10.8797 0 10.2697 0C9.65975 0 9.16183 0.496671 9.16183 1.07814V8.90372H1.10788C0.510374 8.90372 0 9.40038 0 9.99397Z" fill="white" fill-opacity="0.85"/>
</g>
<defs>
<clipPath id="clip0_6_616">
<rect width="21" height="20" fill="white"/>
</clipPath>
</defs>
</svg>
