<svg width="25" height="25" viewBox="0 0 25 25" fill="none" xmlns="http://www.w3.org/2000/svg">
<g clip-path="url(#clip0_11_87)">
<path d="M0.398649 24.5923C0.937856 25.1281 1.8314 25.1281 2.3552 24.5923L12.215 14.5088L22.0747 24.5923C22.5986 25.1281 23.5075 25.1437 24.0314 24.5923C24.5551 24.0408 24.5551 23.1428 24.0314 22.6072L14.1715 12.5079L24.0314 2.42436C24.5551 1.88867 24.5706 0.97485 24.0314 0.439164C23.4922 -0.112278 22.5986 -0.112278 22.0747 0.439164L12.215 10.5227L2.3552 0.439164C1.8314 -0.112278 0.92245 -0.128033 0.398649 0.439164C-0.125152 0.990606 -0.125152 1.88867 0.398649 2.42436L10.2584 12.5079L0.398649 22.6072C-0.125152 23.1428 -0.140558 24.0566 0.398649 24.5923Z" fill="white" fill-opacity="0.85"/>
</g>
<defs>
<clipPath id="clip0_11_87">
<rect width="25" height="25" fill="white"/>
</clipPath>
</defs>
</svg>
