<svg width="27" height="28" viewBox="0 0 27 28" fill="none" xmlns="http://www.w3.org/2000/svg">
<g clip-path="url(#clip0_6_530)">
<path d="M5.34899 24.5847L3.76172 25.9418C3.3164 26.3082 2.76563 26.3554 2.40234 25.9182C2.05078 25.4927 2.17969 24.9255 2.60156 24.5592L4.34862 23.0894C4.63625 23.6293 4.97062 24.1295 5.34899 24.5847ZM23.9531 24.5592C24.3868 24.9255 24.5156 25.4927 24.164 25.9182C23.8008 26.3554 23.2382 26.3082 22.8047 25.9418L21.2137 24.589C21.5934 24.133 21.9287 23.6319 22.217 23.0907L23.9531 24.5592ZM3.09227 15.8022C3.02382 16.332 2.98828 16.8505 2.98828 17.3386L2.99785 17.602L0.972656 17.6104C0.375 17.6104 0 17.2558 0 16.7122C0 16.1686 0.375 15.8022 0.960937 15.8022H3.09227ZM26.5664 16.7122C26.5664 17.2558 26.1797 17.6104 25.5937 17.6104L23.5686 17.602C23.5774 17.5169 23.5781 17.4279 23.5781 17.3386C23.5781 16.8505 23.5426 16.332 23.4742 15.8022H25.6055C26.1797 15.8022 26.5664 16.1686 26.5664 16.7122ZM3.79687 8.35703L5.57182 9.86788C5.53212 9.90136 5.49115 9.93767 5.44922 9.97605C5.09426 10.3143 4.76864 10.7647 4.47964 11.2917L2.64844 9.7397C2.22656 9.37335 2.08594 8.8061 2.4375 8.36884C2.80078 7.93159 3.36328 7.97886 3.79687 8.35703ZM24.1289 8.36884C24.4805 8.8061 24.3398 9.37335 23.9179 9.7397L22.0867 11.2917C21.7978 10.7647 21.4721 10.3143 21.1172 9.97605C21.0752 9.93767 21.0343 9.90136 20.9946 9.86788L22.7695 8.35703C23.2031 7.97886 23.7656 7.93159 24.1289 8.36884Z" fill="#FFB800" fill-opacity="0.85"/>
<path d="M21.1172 9.97608C22.6055 11.3942 23.5781 14.7859 23.5781 17.3386C23.5781 23.0466 20.2852 27.1945 15.2461 27.8445C14.4492 27.939 14.0508 27.6554 14.0508 27.0409V13.5924C14.0508 13.1669 13.6992 12.8242 13.2774 12.8242C12.8555 12.8242 12.5156 13.1669 12.5156 13.5924V27.0409C12.5156 27.6554 12.1172 27.939 11.3203 27.8445C6.28126 27.1945 2.98828 23.0466 2.98828 17.3386C2.98828 14.7859 3.96094 11.3942 5.44923 9.97608C6.21094 9.27884 6.65626 9.26702 7.10157 9.4561C8.83594 10.2361 11.0273 10.7324 13.2774 10.7324C15.539 10.7324 17.7305 10.2361 19.4648 9.4561C19.9102 9.26702 20.3555 9.27884 21.1172 9.97608ZM7.66407 23.2001C7.66407 23.921 8.23828 24.5001 8.95313 24.5001C9.6797 24.5001 10.2539 23.921 10.2539 23.2001C10.2539 22.4792 9.6797 21.9002 8.95313 21.9002C8.23828 21.9002 7.66407 22.4792 7.66407 23.2001ZM16.3126 23.2001C16.3126 23.921 16.8868 24.5001 17.6132 24.5001C18.3281 24.5001 18.9024 23.921 18.9024 23.2001C18.9024 22.4792 18.3281 21.9002 17.6132 21.9002C16.8868 21.9002 16.3126 22.4792 16.3126 23.2001ZM5.70704 18.3903C5.70704 19.383 6.4922 20.1748 7.46484 20.1748C8.42578 20.1748 9.22266 19.383 9.22266 18.3903C9.22266 17.4212 8.42578 16.6294 7.46484 16.6294C6.4922 16.6294 5.70704 17.4212 5.70704 18.3903ZM17.3437 18.3903C17.3437 19.383 18.1406 20.1748 19.1016 20.1748C20.0742 20.1748 20.8594 19.383 20.8594 18.3903C20.8594 17.4212 20.0742 16.6294 19.1016 16.6294C18.1406 16.6294 17.3437 17.4212 17.3437 18.3903ZM7.21875 13.5687C7.21875 14.384 7.88673 15.0932 8.71875 15.0932C9.55078 15.0932 10.2305 14.3959 10.2305 13.5687C10.2305 12.7297 9.55078 12.0442 8.71875 12.0442C7.88673 12.0442 7.21875 12.7297 7.21875 13.5687ZM16.336 13.5687C16.336 14.3959 17.0156 15.0932 17.8476 15.0932C18.6797 15.0932 19.3476 14.384 19.3476 13.5687C19.3476 12.7297 18.6797 12.0442 17.8476 12.0442C17.0156 12.0442 16.336 12.7297 16.336 13.5687Z" fill="#FFB800" fill-opacity="0.85"/>
<path d="M7.05469 6.91528C7.05469 7.55345 7.30077 8.04979 8.05077 8.39251C9.33984 8.9952 11.2852 9.36156 13.2774 9.36156C15.2813 9.36156 17.2266 8.9952 18.5156 8.39251C19.2656 8.04979 19.5118 7.55345 19.5118 6.91528C19.5118 4.31538 17.039 2.24728 13.2774 2.24728C9.52733 2.24728 7.05469 4.31538 7.05469 6.91528ZM8.12109 1.70367L8.91796 1.99911C9.42187 2.17638 9.62109 2.44819 9.52733 2.8618L9.38672 3.46451L11.1094 3.45269L11.1914 2.84999C11.3203 1.70367 10.793 0.852791 9.6328 0.43917L8.70703 0.0610026C7.54687 -0.340801 6.99609 1.36095 8.12109 1.70367ZM18.4453 1.70367C19.5703 1.36095 19.0195 -0.340801 17.8594 0.0610026L16.9336 0.43917C15.7734 0.852791 15.2461 1.70367 15.375 2.84999L15.4571 3.45269L17.1797 3.46451L17.039 2.8618C16.9453 2.44819 17.1445 2.17638 17.6484 1.99911L18.4453 1.70367Z" fill="#FFB800" fill-opacity="0.85"/>
</g>
<defs>
<clipPath id="clip0_6_530">
<rect width="27" height="28" fill="white"/>
</clipPath>
</defs>
</svg>
