<svg width="17" height="12" viewBox="0 0 17 12" fill="none" xmlns="http://www.w3.org/2000/svg">
<g clip-path="url(#clip0_6_559)">
<path d="M8.32752 11.9999C8.56709 11.9999 8.80666 11.8872 8.96957 11.6732L16.3867 2.73797C16.5496 2.54642 16.6455 2.29854 16.6455 2.01685C16.6455 1.43092 16.2717 0.980225 15.7734 0.980225C15.5339 0.980225 15.3135 1.0929 15.1506 1.27319L7.81004 10.0957H8.83541L1.49493 1.27319C1.34161 1.0929 1.1212 0.980225 0.872042 0.980225C0.373732 0.980225 0 1.43092 0 2.01685C0 2.29854 0.0958287 2.54642 0.258738 2.74923L7.67589 11.6732C7.85796 11.8872 8.07836 11.9999 8.32752 11.9999Z" fill="white" fill-opacity="0.85"/>
</g>
<defs>
<clipPath id="clip0_6_559">
<rect width="17" height="12" fill="white"/>
</clipPath>
</defs>
</svg>
