<svg width="27" height="21" viewBox="0 0 27 21" fill="none" xmlns="http://www.w3.org/2000/svg">
<rect x="0.670807" width="15.0932" height="8.00625" rx="4.00313" fill="#DB00FF"/>
<path d="M21.8013 8.00625C20.4225 8.00625 19.1001 7.58449 18.1252 6.83376C17.1502 6.08303 16.6025 5.06482 16.6025 4.00313C16.6025 2.94143 17.1502 1.92322 18.1252 1.17249C19.1001 0.421757 20.4225 4.93595e-07 21.8012 0L21.8013 4.00313V8.00625Z" fill="#0085FF"/>
<path d="M4.00475 13.0664C5.18227 11.2041 7.89847 11.2041 9.076 13.0664L9.29378 13.4108C10.5568 15.4083 9.12152 18.0141 6.75815 18.0141H6.3226C3.95923 18.0141 2.5239 15.4083 3.78697 13.4108L4.00475 13.0664Z" fill="#05FF00"/>
<rect x="13.0807" y="9.05627" width="8.7205" height="8.925" rx="4.36025" fill="#FFB800"/>
</svg>
