<svg width="39" height="25" viewBox="0 0 39 25" fill="none" xmlns="http://www.w3.org/2000/svg">
<g clip-path="url(#clip0_11_92)">
<path d="M19.2446 25C30.6126 25 38.4749 15.4762 38.4749 12.5073C38.4749 9.52377 30.5983 0.0146484 19.2446 0.0146484C8.01857 0.0146484 0 9.52377 0 12.5073C0 15.4762 8.01857 25 19.2446 25ZM19.2446 20.6937C14.8166 20.6937 11.297 16.9753 11.297 12.5073C11.297 7.92177 14.8166 4.32094 19.2446 4.32094C23.63 4.32094 27.178 7.92177 27.178 12.5073C27.178 16.9753 23.63 20.6937 19.2446 20.6937ZM19.2446 15.4614C20.8199 15.4614 22.1256 14.124 22.1256 12.5073C22.1256 10.8759 20.8199 9.53847 19.2446 9.53847C17.655 9.53847 16.3494 10.8759 16.3494 12.5073C16.3494 14.124 17.655 15.4614 19.2446 15.4614Z" fill="white" fill-opacity="0.85"/>
</g>
<defs>
<clipPath id="clip0_11_92">
<rect width="39" height="25" fill="white"/>
</clipPath>
</defs>
</svg>
