<svg width="26" height="21" viewBox="0 0 26 21" fill="none" xmlns="http://www.w3.org/2000/svg">
<g clip-path="url(#clip0_6_547)">
<path d="M3.53726 20.8519H22.3838C24.4003 20.8519 25.5831 19.6669 25.5831 17.3197V5.61748C25.5831 3.27022 24.3891 2.08519 22.0459 2.08519H11.2314C10.4653 2.08519 10.0035 1.90288 9.44019 1.41292L8.75302 0.843192C8.00952 0.205101 7.43499 0 6.31975 0H3.10918C1.13778 0 0 1.13945 0 3.42974V17.3197C0 19.6783 1.18284 20.8519 3.53726 20.8519ZM3.55979 19.0174C2.43328 19.0174 1.81369 18.4134 1.81369 17.2285V3.53229C1.81369 2.40424 2.39948 1.82312 3.48093 1.82312H5.85787C6.60138 1.82312 7.05198 2.01683 7.62651 2.50679L8.31368 3.0879C9.04591 3.70321 9.64297 3.91971 10.7582 3.91971H22.0121C23.1273 3.91971 23.7695 4.53501 23.7695 5.72003V17.2399C23.7695 18.4134 23.1273 19.0174 22.0121 19.0174H3.55979ZM1.10398 8.09009H24.4679V6.36952H1.10398V8.09009Z" fill="white" fill-opacity="0.85"/>
</g>
<defs>
<clipPath id="clip0_6_547">
<rect width="26" height="21" fill="white"/>
</clipPath>
</defs>
</svg>
