<svg width="23" height="21" viewBox="0 0 23 21" fill="none" xmlns="http://www.w3.org/2000/svg">
<g clip-path="url(#clip0_6_540)">
<path d="M19.8173 7.9633C21.5754 8.72574 22.6664 10.42 22.6664 12.265C22.6664 14.4958 20.9263 16.1901 18.3297 16.1901H12.1086V20.2753C12.1086 20.6706 11.784 21.0001 11.3964 21.0001C11.0086 21.0001 10.675 20.6706 10.675 20.2753V16.1901H4.89573C1.93846 16.1901 0 14.2605 0 11.8602C0 9.68582 1.27126 7.8127 3.3089 7.47384C3.35398 4.82884 5.9416 3.17218 7.98824 3.74636C9.07017 2.09911 10.8103 0.734253 13.2537 0.734253C16.9412 0.734253 19.8354 3.76518 19.8173 7.9633ZM10.8733 7.73739L7.82595 10.8059C7.69071 10.9471 7.60957 11.0978 7.60957 11.3048C7.60957 11.6813 7.88005 11.9637 8.25872 11.9637C8.43003 11.9637 8.62838 11.8885 8.75461 11.7378L10.2693 10.0624L10.7291 9.55407L10.675 10.9566V15.8042C10.675 16.2184 10.9996 16.5478 11.3964 16.5478C11.784 16.5478 12.1086 16.2184 12.1086 15.8042V10.9566L12.0545 9.55407L12.5143 10.0624L14.029 11.7378C14.1552 11.8885 14.3446 11.9637 14.5159 11.9637C14.8855 11.9637 15.174 11.6813 15.174 11.3048C15.174 11.0978 15.093 10.9471 14.9577 10.8059L11.9102 7.73739C11.7299 7.54914 11.5767 7.48325 11.3964 7.48325C11.207 7.48325 11.0537 7.54914 10.8733 7.73739Z" fill="white" fill-opacity="0.85"/>
</g>
<defs>
<clipPath id="clip0_6_540">
<rect width="23" height="21" fill="white"/>
</clipPath>
</defs>
</svg>
