<svg width="22" height="21" viewBox="0 0 22 21" fill="none" xmlns="http://www.w3.org/2000/svg">
<g clip-path="url(#clip0_6_600)">
<path d="M10.7836 21C11.4387 21 11.8014 20.5912 11.8014 19.829V13.4881C11.8014 10.8369 14.9134 6.99261 17.7913 5.25827L18.7273 4.68382C19.0549 4.49604 19.2304 4.15359 19.2304 3.82218C19.2304 3.28089 18.8326 2.9053 18.2359 2.9053C17.9435 2.9053 17.6276 3.00472 17.3468 3.18147L16.7267 3.56811C13.8839 5.35769 11.158 8.74905 10.7953 10.4613H10.7602C10.3975 8.738 7.68333 5.35769 4.84044 3.56811L4.22039 3.18147C3.92791 3.00472 3.62373 2.9053 3.31956 2.9053C2.7229 2.9053 2.33683 3.31403 2.33683 3.81113C2.33683 4.14254 2.51232 4.49604 2.83989 4.68382L3.77582 5.25827C6.64211 6.99261 9.76577 10.8369 9.76577 13.4881V19.829C9.76577 20.5912 10.1284 21 10.7836 21ZM2.7346 6.60597L6.01035 2.59598C6.51341 1.97737 6.19754 1.48026 5.4137 1.44712L0.862741 1.25932C0.20759 1.22618 -0.143383 1.63491 0.0555019 2.24249L1.4009 6.34085C1.63488 7.06994 2.21984 7.23563 2.7346 6.60597ZM18.6922 6.59493C19.1835 7.23563 19.7802 7.09203 20.026 6.37399L21.5 2.30878C21.7106 1.71224 21.3713 1.29247 20.7279 1.30351L16.1652 1.3698C15.3813 1.38084 15.0538 1.8669 15.5335 2.49656L18.6922 6.59493Z" fill="white" fill-opacity="0.85"/>
</g>
<defs>
<clipPath id="clip0_6_600">
<rect width="22" height="21" fill="white"/>
</clipPath>
</defs>
</svg>
