<svg width="31" height="25" viewBox="0 0 31 25" fill="none" xmlns="http://www.w3.org/2000/svg">
<g clip-path="url(#clip0_11_98)">
<path d="M28.5451 22.1107C28.5451 22.7017 28.0398 23.1852 27.4223 23.1852H7.18604L9.45428 21.0227H27.4223C28.0398 21.0227 28.5451 21.5196 28.5451 22.1107Z" fill="white" fill-opacity="0.85"/>
<path d="M5.76718 21.9495L21.0928 7.3086L18.6228 4.94457L3.31116 19.5854L1.96385 22.5808C1.83754 22.903 2.1884 23.2792 2.52522 23.1448L5.76718 21.9495ZM22.3138 6.15344L23.7314 4.82369C24.4611 4.13865 24.5032 3.39989 23.8436 2.78202L23.3804 2.32534C22.7348 1.7209 21.963 1.77463 21.2612 2.44622L19.8297 3.78941L22.3138 6.15344Z" fill="white" fill-opacity="0.85"/>
</g>
<defs>
<clipPath id="clip0_11_98">
<rect width="31" height="25" fill="white"/>
</clipPath>
</defs>
</svg>
