<svg width="23" height="28" viewBox="0 0 23 28" fill="none" xmlns="http://www.w3.org/2000/svg">
<g clip-path="url(#clip0_6_493)">
<path d="M14.2969 7.07031C14.2969 8.08594 14.8828 8.66211 15.8984 8.66211H21.2988V17.9297C21.2988 19.9609 20.293 20.9961 18.2715 20.9961H17.9004V15.0879C17.9102 13.6816 17.4805 12.5586 16.582 11.6406L11.3672 6.32812C10.3711 5.30273 9.28711 4.84375 7.76367 4.84375H6.06445V4.28711C6.06445 2.37305 7.08008 1.29883 9.0918 1.29883H14.2969V7.07031ZM16.4453 2.30469L20.5762 6.51367C20.9277 6.85547 21.1328 7.12891 21.1914 7.44141H16.084C15.6934 7.44141 15.5371 7.27539 15.5371 6.875L15.5273 1.69922C15.8301 1.73828 16.1133 1.95312 16.4453 2.30469Z" fill="white" fill-opacity="0.85"/>
<path d="M9.73633 13.75H16.3965C16.2891 13.3691 16.0645 13.0176 15.6348 12.5684L10.4199 7.25586C9.98047 6.81641 9.60938 6.52344 9.23828 6.41602V13.252C9.23828 13.584 9.4043 13.75 9.73633 13.75ZM4.35547 25.8691H13.5352C15.5566 25.8691 16.5625 24.834 16.5625 22.8027V15.0879H9.74609C8.48633 15.0879 7.90039 14.4922 7.90039 13.2422V6.17188H4.35547C2.34375 6.17188 1.32812 7.19727 1.32812 9.23828V22.8027C1.32812 24.8438 2.34375 25.8691 4.35547 25.8691Z" fill="white" fill-opacity="0.85"/>
</g>
<defs>
<clipPath id="clip0_6_493">
<rect width="22.9883" height="27.1973" fill="white"/>
</clipPath>
</defs>
</svg>
